<svg xmlns="http://www.w3.org/2000/svg" width="28" height="28">
    <path fill="#ff5a5a" fill-rule="evenodd" d="M14.482.443C7.024.443.977 6.49.977 13.949c0 7.459 6.047 13.504 13.505 13.504 7.459 0 13.505-6.045 13.505-13.504S21.941.443 14.482.443zm2.066 21.982h-4.003v-3.914h4.003v3.914zm3.723-10.133c-.179.299-.405.603-.675.911-.21.232-.473.494-.787.787l-.787.731c-.293.278-.525.517-.698.72-.472.539-.73 1.064-.776 1.575h-4.003c.007-.713.217-1.403.63-2.071.172-.269.386-.55.641-.843.187-.209.427-.461.719-.753l.732-.72c.254-.263.46-.495.617-.697.413-.525.619-1.027.619-1.508 0-.952-.446-1.428-1.338-1.428-.63 0-1.068.229-1.315.687-.165.314-.256.824-.27 1.529H9.363c-.009-.067-.016-.139-.024-.213v-.203c0-1.695.589-3.081 1.766-4.162 1.148-1.05 2.58-1.573 4.297-1.573 2.339 0 3.995.921 4.97 2.766.367.682.551 1.387.551 2.115 0 .839-.217 1.622-.652 2.35z"/>
</svg>
