<svg xmlns="http://www.w3.org/2000/svg" width="28" height="28">
    <path fill="#ff5a5a" fill-rule="evenodd" d="M13.519.972C6.055.972.004 7.023.004 14.487s6.051 13.514 13.515 13.514 13.514-6.05 13.514-13.514c0-7.464-6.05-13.515-13.514-13.515zm6.803 19.366c-.376.75-1.551 2.299-2.763 2.299-1.328 0-4.551-1.759-7.252-5.539C7.782 13.563 6.55 11.012 6.55 9.29c0-1.352.899-1.998 1.386-2.343l.116-.087c.529-.396 1.365-.524 1.678-.524.561 0 .799.339.936.635.117.248 1.122 2.481 1.228 2.764.154.427.101 1.05-.381 1.41l-.084.06c-.239.173-.683.493-.747.881-.026.19.032.386.186.605.778 1.084 3.251 4.274 3.696 4.709.355.337.799.388 1.1.124.313-.273.451-.437.451-.437.063-.056.306-.255.703-.255.291 0 .582.101.868.303.751.529 2.444 1.707 2.444 1.707.244.216.557.771.192 1.496z"/>
</svg>
